#N canvas 797 16 758 567 12;
#X msg 491 294 send /test \$1;
#X floatatom 570 256 5 0 0 0 - - -;
#X msg 339 249 connect localhost 12001;
#X obj 492 342 print;
#X obj 337 220 loadbang;
#X msg 389 284 disconnect;
#X obj 335 342 sendOSC;
#X connect 0 0 3 0;
#X connect 0 0 6 0;
#X connect 1 0 0 0;
#X connect 2 0 6 0;
#X connect 4 0 2 0;
#X connect 5 0 6 0;
