#N canvas -11 -11 1920 956 10;
#X msg 33 98 connect localhost 12001;
#X msg 89 141 disconnect;
#X msg 158 193 send /mic1 \$1;
#X obj 55 244 sendOSC;
#X floatatom 218 114 5 0 500 0 - - -;
#X msg 275 220 send /mic2 \$1;
#X floatatom 312 131 5 0 500 0 - - -;
#X msg 375 249 send /mic3 \$1;
#X floatatom 418 145 5 0 500 0 - - -;
#X floatatom 494 151 5 0 500 0 - - -;
#X msg 457 286 send /mic4 \$1;
#X obj 342 50 adc~ 1 2 3 4;
#X connect 0 0 3 0;
#X connect 1 0 3 0;
#X connect 2 0 3 0;
#X connect 4 0 2 0;
#X connect 5 0 3 0;
#X connect 6 0 5 0;
#X connect 7 0 3 0;
#X connect 8 0 7 0;
#X connect 9 0 10 0;
#X connect 10 0 3 0;
